<svg id="Ebene_1" data-name="Ebene 1" xmlns="http://www.w3.org/2000/svg" viewBox="0 0 134.39 119.53"><defs><style>.cls-1{fill:#fff;}</style></defs><title>logo</title><path class="cls-1" d="M104.87,0h0L67.2,42.94,29.52,0H0V119.53H3.16V3.6L8.78,10V119.53h3.16V13.62L17.57,20v99.5h3.16V23.63L26.36,30v89.49h3.16V33.64L52.44,59.77h4.18l48.26-55v9.72L65.15,59.77h4.21l35.52-40.48V29l-27,30.76H82l22.92-26.12V86.92H76l2.25,2.57h26.63v3.44H81.26l2.25,2.57h21.36v3.44H86.53l2.25,2.57h16.08v3.44H91.81l2.25,2.57h10.81v3.44H97.08l2.26,2.57h5.54V117h-2.52l2.26,2.57h29.79V0H104.87ZM84.42,62.88H54.9l2.25,2.57H86.68Zm5.27,6H60.17l2.25,2.57H91.95Zm5.27,6H65.45l2.26,2.57H97.22Zm5.27,6H70.72L73,83.47h29.52Z" transform="translate(0 0)"/></svg>