<?xml version="1.0" encoding="utf-8"?>
<!-- Generator: Adobe Illustrator 22.0.0, SVG Export Plug-In . SVG Version: 6.00 Build 0)  -->
<svg version="1.1" id="Ebene_1" xmlns="http://www.w3.org/2000/svg" xmlns:xlink="http://www.w3.org/1999/xlink" x="0px" y="0px"
	  viewBox="0 0 134.4 119.5" style="enable-background:new 0 0 134.4 119.5;" xml:space="preserve"
	>
<path d="M84.4,62.6H54.9l2.6,3H87L84.4,62.6z M89.7,68.6H60.2l2.6,3h29.5L89.7,68.6z M94.9,74.6H65.4l2.6,3h29.5L94.9,74.6z
	 M100.2,80.6H70.7l2.6,3h29.5L100.2,80.6z M113.6,119.5h3.2V0h-3.2V119.5z M122.4,119.5h3.2V0h-3.2V119.5z M131.2,0v119.5h3.2V0
	H131.2z M67.2,42.9L29.5,0h-4.1l39.7,45.3l0,0l-4.3,4.9L16.9,0h-4.2l46.1,52.5h0l-4.3,4.9L4.2,0H0v119.5h29.5V33.6l22.9,26.1H82
	l22.9-26.1v52.9H76l2.6,3h26.3v3H81.2l2.6,3h21.1v3H86.5l2.6,3h15.8v3H91.7l2.6,3h10.5v3H97l2.6,3h5.3v3h-2.6l2.6,3h0v0h3.1V0h-3.1
	L67.2,42.9z"/>
</svg>
