<?xml version="1.0" encoding="utf-8"?>
<!-- Generator: Adobe Illustrator 21.0.0, SVG Export Plug-In . SVG Version: 6.00 Build 0)  -->
<svg version="1.1" id="Ebene_1" xmlns="http://www.w3.org/2000/svg" xmlns:xlink="http://www.w3.org/1999/xlink" x="0px" y="0px"
 width="134.3949585px" height="119.5300293px" viewBox="0 0 134.3949585 119.5300293"
 style="enable-background:new 0 0 134.3949585 119.5300293;" xml:space="preserve">
<path d="M104.8729858,0v-0.0029907L67.1989746,42.9390259L29.5199585-0.0029907H0v119.53302h3.1599731V3.6000366
l5.6240234,6.4110107v109.5189819h3.1619873V13.6150513l5.625,6.4109497v99.5040283h3.1610107v-95.901001l5.6259766,6.4119873
v89.4890137h3.1610107V33.6430054l22.9179688,26.1220093h4.177002l48.2590332-55.0039673v9.723999L65.1459961,59.7650146h4.2079468
l35.519043-40.4840088v9.7260132L77.8859863,59.7650146h4.0700073l22.9169922-26.1209717v53.2709961H75.9899902l2.2539673,2.5689697
h26.6290283v3.4400024H81.2630005l2.2539673,2.5679932h21.3560181v3.4390259H86.5349731L88.7890015,101.5h16.0839844v3.4400024
H91.8079834l2.2539673,2.5690308h10.8110352v3.4389648h-7.7940063l2.2550049,2.5690308h5.5390015v3.4400024h-2.5209961
l2.2550049,2.572998h29.7879639V0H104.8729858z M84.4215698,62.8812866H54.9005737l2.2539673,2.5690308h29.5210571
L84.4215698,62.8812866z M89.6942749,68.8897705H60.1732788l2.2539673,2.5680542h29.5220337L89.6942749,68.8897705z
 M94.9671021,74.8978271H65.4450684l2.2550049,2.5689697h29.5219727L94.9671021,74.8978271z M100.2407837,80.9067993H70.71875
l2.2520142,2.5680542h29.5239868L100.2407837,80.9067993z"/>
</svg>